<?xml version="1.0" standalone="no"?>
<!DOCTYPE svg PUBLIC "-//W3C//DTD SVG 20010904//EN"
 "http://www.w3.org/TR/2001/REC-SVG-20010904/DTD/svg10.dtd">
<svg version="1.0" xmlns="http://www.w3.org/2000/svg"
 width="345.000000pt" height="345.000000pt" viewBox="0 0 345.000000 345.000000"
 preserveAspectRatio="xMidYMid meet">

<g transform="translate(0.000000,345.000000) scale(0.100000,-0.100000)"
fill="#000000" stroke="none">
<path d="M0 1725 l0 -1725 1725 0 1725 0 0 1725 0 1725 -1725 0 -1725 0 0
-1725z m1244 1514 c33 -7 53 -16 48 -21 -5 -5 -27 -5 -53 1 -24 6 -66 11 -92
11 -30 0 -46 4 -42 10 8 13 68 13 139 -1z m-224 -14 c-7 -8 -18 -15 -24 -15
-19 0 -130 -57 -161 -83 l-30 -25 63 5 c55 5 62 4 56 -11 -4 -9 -17 -16 -35
-16 -15 0 -51 -5 -79 -11 -43 -9 -55 -17 -80 -54 -29 -42 -70 -127 -70 -145 0
-5 22 -6 49 -3 61 7 141 -4 141 -20 0 -8 -28 -12 -94 -12 -52 0 -98 -4 -103
-8 -10 -11 -11 -160 0 -208 7 -34 10 -36 69 -48 101 -21 184 -67 266 -149 l73
-73 71 66 c39 36 74 65 79 65 29 0 -16 102 -79 179 -48 58 -141 126 -202 146
-29 10 -50 23 -50 31 0 21 19 17 99 -21 95 -46 195 -143 240 -236 l32 -66 80
40 c90 45 91 47 64 152 -21 79 -68 164 -122 220 -25 26 -43 54 -41 63 3 13 18
2 60 -41 69 -71 123 -177 139 -273 l11 -71 71 18 c39 11 83 19 99 19 l28 0 0
73 c0 39 -7 99 -14 132 -8 33 -12 64 -8 69 12 20 34 -73 39 -165 l6 -96 94 -7
c173 -13 349 -76 471 -168 30 -22 54 -38 56 -36 69 108 132 173 217 218 33 17
62 30 64 28 8 -8 -13 -26 -63 -53 -54 -29 -153 -127 -184 -181 l-16 -29 45
-48 46 -49 43 50 c58 66 150 127 231 152 74 23 96 25 91 8 -2 -6 -32 -19 -65
-28 -84 -23 -164 -73 -229 -144 l-55 -58 18 -27 c9 -14 31 -49 48 -77 l31 -51
33 28 c186 155 480 157 658 4 23 -19 44 -35 49 -35 4 0 4 34 1 76 -4 60 -11
84 -33 115 -69 100 -212 176 -352 186 -47 4 -71 10 -69 17 5 13 112 11 171 -5
54 -13 153 -65 195 -101 42 -37 49 -30 18 19 -70 109 -189 200 -294 224 -32 8
-53 18 -53 26 0 16 25 11 110 -20 116 -42 233 -152 282 -267 11 -25 39 -85 63
-135 46 -96 65 -167 65 -243 0 -26 9 -75 20 -109 20 -66 22 -88 21 -338 -1
-181 -9 -230 -57 -331 -19 -39 -34 -78 -34 -85 0 -18 -62 -147 -84 -174 -27
-34 -18 1 19 72 42 82 44 95 7 60 -59 -57 -57 -22 3 46 l45 52 0 80 c0 44 -3
90 -6 102 -6 22 -9 20 -61 -27 -50 -45 -83 -62 -83 -42 0 4 27 31 60 60 36 32
60 61 60 73 0 22 -20 65 -58 121 l-24 37 -44 -30 c-68 -47 -151 -82 -169 -72
-12 7 -2 15 42 33 61 25 143 76 143 89 0 11 -38 44 -86 75 l-41 26 -65 -30
c-92 -43 -201 -57 -295 -38 l-73 14 -6 -35 c-14 -84 -36 -167 -54 -209 -24
-53 -24 -52 -5 -52 8 0 34 -15 58 -33 59 -45 132 -75 219 -89 83 -13 127 -38
67 -38 -103 0 -226 43 -315 110 l-51 38 -17 -35 c-31 -65 -135 -191 -206 -250
-39 -32 -108 -78 -154 -103 l-83 -45 52 -58 c196 -215 192 -520 -10 -722 -117
-117 -289 -174 -446 -147 -68 12 -116 29 -106 38 2 2 35 -3 73 -12 280 -66
561 124 606 410 24 154 -23 303 -133 420 l-59 64 -63 -19 c-80 -24 -203 -37
-291 -31 -65 4 -69 3 -62 -14 18 -43 18 -188 1 -254 -18 -71 -71 -174 -104
-204 -31 -28 -26 -10 15 50 69 106 100 256 75 375 l-12 56 -52 11 c-29 6 -60
14 -69 17 -16 6 -18 1 -18 -36 -1 -121 -58 -254 -154 -356 l-63 -68 13 -58
c11 -47 36 -109 49 -125 5 -5 77 34 114 62 19 14 39 26 45 26 20 0 -38 -50
-90 -77 -30 -15 -54 -31 -54 -34 0 -12 77 -94 123 -130 27 -22 42 -39 34 -39
-30 0 -141 102 -173 158 -1 1 -40 -5 -88 -14 -78 -16 -89 -16 -102 -2 -14 13
-7 16 63 21 43 3 86 8 95 12 16 6 16 9 -1 43 -10 21 -24 57 -31 82 -7 25 -14
50 -16 57 -2 8 -17 5 -46 -12 -101 -56 -257 -75 -372 -44 -21 6 -40 8 -42 6
-8 -7 101 -86 147 -106 24 -11 65 -25 92 -31 56 -15 65 -35 10 -26 -70 13
-182 73 -246 134 -34 32 -87 74 -118 94 -31 20 -78 62 -105 94 -27 31 -79 87
-116 125 -46 47 -78 91 -104 146 -21 43 -52 98 -70 123 -45 64 -71 118 -93
196 -10 38 -30 94 -44 124 -39 88 -46 148 -43 380 2 165 7 227 19 265 9 28 17
82 17 120 0 119 37 231 105 320 22 28 44 72 52 104 20 77 54 139 115 213 29
34 67 90 84 124 58 115 151 202 275 257 29 13 60 31 67 40 21 25 107 77 170
103 67 28 79 29 62 9z m467 -110 c56 -49 107 -118 101 -136 -2 -7 -18 8 -36
33 -40 58 -125 135 -179 161 -23 11 -40 24 -37 29 8 12 94 -37 151 -87z m-449
-20 c63 -15 155 -56 167 -75 14 -22 -7 -30 -33 -12 -34 24 -124 57 -179 67
-41 6 -51 14 -36 28 8 9 8 9 81 -8z m1743 -375 c5 0 9 -4 9 -10 0 -5 -24 -10
-52 -10 -29 0 -70 -4 -90 -9 -30 -7 -38 -6 -38 5 0 7 15 15 33 18 53 9 101 13
115 9 8 -1 18 -3 23 -3z m-101 -1161 c42 -13 93 -20 143 -20 88 0 117 -6 95
-20 -39 -25 -230 1 -306 41 -50 26 -17 26 68 -1z m440 -238 c0 -15 -103 -53
-146 -55 -60 -2 -55 16 8 30 29 6 69 18 88 27 34 15 50 14 50 -2z m-645 -111
c53 -76 174 -160 254 -176 29 -6 59 -29 49 -39 -8 -9 -111 26 -158 52 -66 38
-137 100 -170 149 -34 48 -36 54 -16 54 7 0 26 -18 41 -40z m-114 -142 c30
-59 111 -141 186 -189 36 -22 63 -43 60 -45 -10 -11 -112 49 -160 94 -46 43
-127 154 -127 174 0 22 22 4 41 -34z m819 27 c0 -15 -94 -75 -117 -75 -7 0
-13 7 -13 15 0 8 6 15 13 15 7 0 33 13 57 29 52 34 60 36 60 16z m-160 -79 c0
-9 -21 -18 -63 -25 -86 -15 -122 -14 -137 4 -11 13 -4 15 51 16 35 1 78 5 94
9 46 12 55 11 55 -4z m120 -85 c-13 -24 -70 -66 -70 -52 0 12 60 70 73 71 4 0
3 -9 -3 -19z m-119 -79 c-9 -17 -99 -52 -134 -52 -32 0 -17 19 21 26 20 4 55
15 77 25 22 10 41 18 43 18 1 1 -2 -7 -7 -17z m-251 -39 c69 -7 81 -23 18 -22
-67 0 -121 13 -126 28 -3 10 2 12 21 7 15 -3 54 -9 87 -13z"/>
<path d="M695 3031 c-66 -27 -177 -137 -216 -214 l-20 -39 43 25 c24 14 63 31
87 38 30 9 46 20 49 34 3 11 22 53 43 93 20 39 36 72 36 71 -1 0 -11 -4 -22
-8z"/>
<path d="M531 2784 c-39 -20 -79 -46 -87 -59 -9 -13 -18 -57 -21 -99 l-6 -75
48 15 c27 8 77 14 112 14 l64 0 -8 38 c-4 20 -8 74 -8 120 0 54 -4 82 -11 82
-6 0 -44 -16 -83 -36z"/>
<path d="M361 2643 c-30 -36 -71 -113 -86 -161 -6 -20 -2 -19 53 15 l60 38 4
70 c3 39 4 71 3 73 -2 2 -17 -14 -34 -35z"/>
<path d="M1545 2575 c-325 -71 -574 -330 -631 -656 -72 -414 178 -814 582
-931 67 -20 102 -23 229 -23 165 1 238 16 360 77 430 216 583 749 333 1165
-106 178 -334 338 -529 372 -86 15 -268 13 -344 -4z m-545 -784 c0 -25 5 -30
33 -36 69 -15 97 -54 61 -89 -22 -23 -31 -20 -37 12 -5 22 -15 30 -54 42 -42
13 -48 19 -51 45 -3 19 2 33 14 42 27 19 34 16 34 -16z m81 19 c10 -6 19 -17
19 -25 0 -20 -46 -19 -54 1 -13 35 -2 43 35 24z m119 -80 c0 -89 0 -90 -25
-90 -25 0 -25 1 -25 90 0 89 0 90 25 90 25 0 25 -1 25 -90z m120 0 c0 -89 0
-90 -25 -90 -22 0 -25 4 -25 35 0 24 -5 35 -15 35 -8 0 -15 9 -15 20 0 11 7
20 15 20 10 0 15 11 15 35 0 31 3 35 25 35 25 0 25 -1 25 -90z m100 5 c0 -47
-3 -85 -7 -85 -3 0 -15 7 -25 17 -14 13 -18 31 -18 85 0 66 1 68 25 68 25 0
25 -1 25 -85z m130 36 c0 -26 -5 -62 -10 -78 -10 -27 -44 -53 -70 -53 -16 0
-11 37 5 44 11 4 15 22 15 71 l0 65 30 0 c29 0 30 -1 30 -49z m100 -41 l0 -90
-30 0 -30 0 0 90 0 90 30 0 30 0 0 -90z m90 75 c0 -9 -9 -15 -25 -15 -16 0
-25 6 -25 15 0 9 9 15 25 15 16 0 25 -6 25 -15z m90 -75 l0 -90 -30 0 -30 0 0
90 0 90 30 0 30 0 0 -90z m90 75 c0 -9 -9 -15 -25 -15 -16 0 -25 6 -25 15 0 9
9 15 25 15 16 0 25 -6 25 -15z m90 -75 l0 -90 -30 0 -30 0 0 90 0 90 30 0 30
0 0 -90z m180 0 l0 -90 -30 0 -30 0 0 90 0 90 30 0 30 0 0 -90z m100 75 c0
-10 -10 -15 -30 -15 -20 0 -30 5 -30 15 0 10 10 15 30 15 20 0 30 -5 30 -15z
m80 -75 c0 -83 -1 -90 -20 -90 -19 0 -20 7 -20 90 0 83 1 90 20 90 19 0 20 -7
20 -90z m101 80 c23 -13 25 -57 3 -81 -15 -17 -15 -21 6 -54 l23 -36 -34 3
c-30 3 -36 8 -49 46 -14 40 -14 45 3 56 21 16 22 35 2 42 -8 4 -15 12 -15 20
0 16 33 18 61 4z m-201 -75 c0 -8 -9 -15 -20 -15 -11 0 -20 7 -20 15 0 8 9 15
20 15 11 0 20 -7 20 -15z m-550 -10 c0 -8 -7 -15 -15 -15 -8 0 -15 7 -15 15 0
8 7 15 15 15 8 0 15 -7 15 -15z m180 0 c0 -8 -7 -15 -15 -15 -8 0 -15 7 -15
15 0 8 7 15 15 15 8 0 15 -7 15 -15z m-897 -39 c18 -14 24 -46 7 -46 -22 0
-59 24 -63 41 -4 14 0 19 16 19 12 0 30 -7 40 -14z m1097 -26 c0 -15 -7 -20
-25 -20 -18 0 -25 5 -25 20 0 15 7 20 25 20 18 0 25 -5 25 -20z m190 0 c0 -16
-7 -20 -30 -20 -23 0 -30 4 -30 20 0 16 7 20 30 20 23 0 30 -4 30 -20z"/>
<path d="M545 2550 c-33 -5 -73 -13 -89 -19 -27 -11 -28 -14 -23 -52 3 -23 20
-71 39 -108 l33 -66 95 -6 c113 -8 185 -33 275 -95 l64 -43 21 36 c11 19 20
36 18 37 -2 1 -33 17 -70 34 -85 41 -183 136 -226 218 -28 55 -50 77 -70 73
-4 -1 -34 -5 -67 -9z"/>
<path d="M680 2537 c0 -26 76 -132 131 -181 52 -47 138 -96 170 -96 8 0 25 13
37 29 l21 29 -35 47 c-64 83 -182 156 -291 180 -25 5 -33 3 -33 -8z"/>
<path d="M338 2470 c-78 -52 -81 -57 -76 -159 2 -50 6 -93 9 -95 2 -3 35 10
72 29 37 19 83 37 102 41 l34 6 -29 58 c-16 32 -34 78 -41 104 -6 25 -15 46
-18 46 -4 0 -28 -13 -53 -30z"/>
<path d="M192 2315 c-39 -59 -61 -127 -69 -210 l-6 -60 41 51 c22 28 52 60 66
72 25 19 26 23 16 69 -5 26 -11 66 -12 88 l-3 40 -33 -50z"/>
<path d="M571 2234 c70 -73 175 -123 290 -139 38 -6 47 -4 53 11 22 58 -193
163 -333 164 l-45 0 35 -36z"/>
<path d="M2760 2259 c-58 -11 -154 -60 -203 -101 l-39 -33 26 -77 c14 -42 26
-84 26 -93 0 -9 3 -15 8 -13 4 2 31 15 59 31 149 78 318 75 481 -7 28 -14 53
-26 55 -26 6 0 54 111 61 142 5 22 -1 32 -41 68 -110 97 -281 140 -433 109z"/>
<path d="M397 2236 c-68 -28 -107 -53 -107 -67 0 -18 48 -103 77 -136 l28 -32
55 14 c111 30 253 14 361 -41 28 -14 52 -24 54 -22 1 2 9 26 17 55 l15 52 -68
11 c-94 16 -198 68 -268 135 -66 63 -79 65 -164 31z"/>
<path d="M3270 2183 c0 -57 4 -73 25 -98 l24 -30 1 31 c0 32 -36 164 -45 164
-3 0 -5 -30 -5 -67z"/>
<path d="M211 2108 c-22 -23 -50 -61 -63 -84 -20 -38 -21 -46 -10 -95 20 -87
23 -88 79 -40 26 24 68 55 93 69 25 14 46 27 48 28 2 1 -12 24 -30 51 -19 28
-40 64 -47 81 -8 18 -17 32 -21 32 -4 0 -26 -19 -49 -42z"/>
<path d="M3250 2063 c0 -10 -13 -46 -29 -79 l-29 -62 42 -41 c23 -22 45 -41
48 -41 10 0 38 97 38 128 0 25 -49 112 -62 112 -5 0 -8 -8 -8 -17z"/>
<path d="M505 1995 c-5 -2 -28 -6 -50 -10 l-40 -7 30 -24 c80 -66 194 -104
311 -104 86 0 109 11 102 47 -5 25 -90 69 -170 88 -60 13 -157 19 -183 10z"/>
<path d="M2743 1985 c-54 -15 -114 -42 -145 -67 -14 -11 -16 -23 -12 -69 l6
-55 57 19 c74 25 240 20 317 -10 l52 -20 43 34 c44 35 88 82 89 95 0 12 -96
57 -153 72 -70 18 -190 18 -254 1z"/>
<path d="M329 1932 c-48 -28 -91 -62 -123 -100 -18 -21 -18 -22 2 -54 11 -18
36 -48 54 -66 l34 -32 40 29 c74 55 145 83 248 101 99 16 100 17 55 24 -55 8
-158 55 -209 96 -21 17 -42 30 -46 30 -5 0 -30 -13 -55 -28z"/>
<path d="M95 1904 c-11 -30 -19 -201 -8 -189 5 6 21 30 35 55 l25 45 -22 54
c-18 43 -23 50 -30 35z"/>
<path d="M3322 1864 l-20 -55 28 -54 28 -54 7 40 c6 32 -10 179 -19 179 -2 0
-12 -25 -24 -56z"/>
<path d="M3155 1876 c-10 -14 -39 -43 -65 -64 l-48 -39 65 -47 66 -47 27 26
c14 14 36 43 48 63 l21 38 -48 48 -49 48 -17 -26z"/>
<path d="M760 1820 c-41 -4 -61 -7 -44 -8 17 -1 53 -9 80 -17 27 -8 50 -15 52
-15 1 0 2 11 2 25 0 14 -3 24 -7 23 -5 -1 -42 -4 -83 -8z"/>
<path d="M2661 1794 c-66 -18 -71 -21 -71 -44 0 -31 59 -43 179 -38 84 4 118
10 165 30 52 22 57 27 40 36 -62 32 -221 41 -313 16z"/>
<path d="M585 1779 c-33 -4 -84 -17 -114 -28 -60 -24 -141 -77 -141 -92 0 -17
139 -77 194 -84 34 -5 72 -1 113 9 33 9 84 16 112 16 29 0 66 7 83 16 28 14
30 19 24 52 -3 21 -6 47 -6 58 0 37 -150 67 -265 53z"/>
<path d="M130 1719 c-16 -35 -30 -71 -30 -79 0 -17 56 -140 64 -140 3 0 14 17
25 38 10 20 33 54 50 76 17 21 31 42 31 45 -1 3 -25 32 -55 65 l-55 59 -30
-64z"/>
<path d="M3266 1749 c-10 -17 -31 -45 -46 -63 l-28 -32 36 -55 c21 -31 42 -65
48 -75 11 -17 16 -12 44 48 32 68 32 68 15 111 -9 24 -24 56 -34 70 l-17 26
-18 -30z"/>
<path d="M265 1599 c-14 -18 -37 -54 -51 -82 l-26 -49 29 -30 c15 -17 45 -43
67 -59 l38 -29 28 38 c34 46 83 92 133 125 l38 26 -43 11 c-24 7 -72 27 -108
46 -35 19 -67 34 -71 34 -4 0 -19 -14 -34 -31z"/>
<path d="M80 1514 c0 -61 26 -191 41 -199 5 -4 9 8 9 25 0 17 5 51 11 74 10
40 8 47 -21 100 -18 31 -34 56 -36 56 -2 0 -4 -25 -4 -56z"/>
<path d="M752 1555 c-23 -8 -75 -17 -115 -21 -39 -4 -90 -16 -112 -27 -40 -20
-175 -148 -175 -166 0 -10 68 -34 140 -50 41 -9 47 -8 70 14 71 67 228 135
315 135 l43 0 -21 58 c-12 31 -26 60 -32 64 -15 11 -64 8 -113 -7z"/>
<path d="M3325 1516 c-25 -42 -29 -58 -24 -86 4 -19 11 -55 16 -80 l9 -45 18
55 c20 63 33 195 20 202 -5 3 -23 -18 -39 -46z"/>
<path d="M166 1393 c-3 -21 -6 -66 -6 -100 0 -58 2 -63 44 -110 l44 -48 7 30
c4 17 16 59 27 93 l20 64 -38 31 c-22 18 -49 42 -62 54 -13 13 -24 23 -26 23
-2 0 -6 -17 -10 -37z"/>
<path d="M758 1387 c-64 -22 -184 -94 -174 -105 3 -2 36 1 73 8 73 12 170 54
218 94 l30 25 -40 0 c-22 0 -70 -10 -107 -22z"/>
<path d="M915 1380 c-56 -62 -187 -117 -302 -127 -71 -6 -72 -6 -103 -49 -37
-53 -69 -121 -70 -151 0 -18 9 -23 50 -32 90 -19 138 -15 163 15 105 126 192
193 289 222 32 9 58 20 58 23 0 4 -15 32 -34 63 -33 54 -34 55 -51 36z"/>
<path d="M310 1252 c-11 -30 -23 -74 -27 -98 -6 -42 -5 -43 43 -73 50 -33 84
-40 84 -18 0 15 63 143 86 175 16 21 16 22 -9 22 -14 0 -55 11 -91 24 l-66 23
-20 -55z"/>
<path d="M939 1236 c-87 -31 -168 -88 -228 -160 -31 -39 -32 -41 -13 -44 42
-6 154 58 225 129 85 85 89 101 16 75z"/>
<path d="M1008 1213 c-48 -81 -159 -165 -268 -203 -42 -14 -81 -30 -88 -34
-11 -7 -35 -79 -46 -142 -6 -40 10 -44 115 -32 165 20 341 157 389 304 11 32
9 36 -32 84 -24 27 -45 50 -48 50 -3 0 -13 -12 -22 -27z"/>
<path d="M180 1136 c14 -38 60 -126 65 -126 3 0 5 19 5 43 0 39 -4 47 -40 76
-38 31 -39 31 -30 7z"/>
<path d="M1117 1051 c-82 -168 -261 -281 -443 -281 l-74 0 1 -27 c0 -16 6 -53
12 -83 l12 -55 50 -13 c100 -26 267 4 358 64 121 80 200 196 226 331 l8 43
-53 40 c-29 22 -57 40 -61 39 -4 0 -21 -26 -36 -58z"/>
<path d="M283 1012 c5 -52 10 -61 53 -100 26 -23 48 -41 49 -40 1 2 5 33 7 69
l6 67 -61 31 -60 31 6 -58z"/>
<path d="M1282 960 c-19 -91 -68 -177 -141 -250 -121 -121 -267 -173 -422
-151 -40 5 -74 9 -76 8 -1 -2 8 -20 20 -42 55 -99 270 -131 437 -65 91 36 100
45 100 104 0 115 56 248 144 343 l55 59 -53 26 -52 26 -12 -58z"/>
<path d="M425 987 c-4 -8 -5 -42 -3 -77 l3 -62 45 -18 c25 -10 59 -21 77 -24
31 -7 32 -6 38 31 4 21 13 58 21 82 8 25 14 48 14 51 0 4 -35 10 -78 13 -43 3
-86 9 -95 13 -10 4 -19 0 -22 -9z"/>
<path d="M1363 898 c-61 -62 -110 -150 -127 -228 -18 -77 -21 -130 -7 -130 18
0 101 102 130 161 34 67 54 151 49 204 l-3 36 -42 -43z"/>
<path d="M320 872 c0 -9 45 -77 77 -115 26 -33 27 -31 12 28 -9 34 -20 50 -50
69 -21 15 -39 23 -39 18z"/>
<path d="M445 764 c8 -27 23 -60 33 -74 18 -25 107 -79 115 -70 2 3 -1 37 -6
76 l-10 72 -56 15 c-31 9 -64 19 -73 22 -16 7 -17 4 -3 -41z"/>
<path d="M579 559 c29 -27 56 -48 58 -45 12 11 -26 63 -57 78 -58 28 -58 20
-1 -33z"/>
</g>
</svg>
